<svg width="180" height="271" viewBox="0 0 180 271" fill="none" xmlns="http://www.w3.org/2000/svg">
<path d="M0 72.7998V52L90 0L180 52V218.2L90 270.2L72 259.8L162 207.8V62.3999L90 20.7998L0 72.7998Z" fill="white"/>
<path d="M36 72.8003L90 41.6001L144 72.8003V135L72 93.6001L90 83.2002L126 104V83.2002L90 62.3999L54 83.2002V104L90 124.8L144 155.8V197.4L90 228.6L36 197.4V135L108 176.6L90 187L54 166.2V187L90 207.8L126 187V166.2L90 145.4L36 114.4V72.8003Z" fill="white"/>
<path d="M18 83.2002L0 93.6001V218.2L54 249.4L72 239L18 207.8V83.2002Z" fill="white"/>
</svg>
