<?xml version="1.0" standalone="no"?>
<!DOCTYPE svg PUBLIC "-//W3C//DTD SVG 20010904//EN"
 "http://www.w3.org/TR/2001/REC-SVG-20010904/DTD/svg10.dtd">
<svg version="1.0" xmlns="http://www.w3.org/2000/svg"
 width="1229.000000pt" height="708.000000pt" viewBox="0 0 1229.000000 708.000000"
 preserveAspectRatio="xMidYMid meet">

<g transform="translate(0.000000,708.000000) scale(0.100000,-0.100000)"
fill="#fff" stroke="none">
<path d="M0 6630 l0 -450 6145 0 6145 0 0 450 0 450 -6145 0 -6145 0 0 -450z"/>
<path d="M10 3605 l0 -2215 653 0 653 0 0 2215 0 2215 -653 0 -653 0 0 -2215z"/>
<path d="M1570 5370 l0 -450 995 0 995 0 0 450 0 450 -995 0 -995 0 0 -450z"/>
<path d="M4132 5363 l3 -458 2008 -3 2007 -2 0 460 0 460 -2010 0 -2010 0 2
-457z"/>
<path d="M8600 3575 l0 -2245 588 2 587 3 3 2243 2 2242 -590 0 -590 0 0
-2245z"/>
<path d="M5530 3040 l0 -1650 615 0 615 0 0 1650 0 1650 -615 0 -615 0 0
-1650z"/>
<path d="M1572 3618 l3 -453 978 -3 977 -2 0 455 0 455 -980 0 -980 0 2 -452z"/>
<path d="M1570 1840 l0 -450 995 0 995 0 0 450 0 450 -995 0 -995 0 0 -450z"/>
<path d="M10040 1810 l0 -480 1120 0 1120 0 0 480 0 480 -1120 0 -1120 0 0
-480z"/>
<path d="M0 460 l0 -450 6145 0 6145 0 0 450 0 450 -6145 0 -6145 0 0 -450z"/>
</g>
</svg>
