<svg width="759" height="271" viewBox="0 0 759 271" fill="none" xmlns="http://www.w3.org/2000/svg">
<path d="M0 72.7998V52L90 0L180 52V218.2L90 270.2L72 259.8L162 207.8V62.3999L90 20.7998L0 72.7998Z" fill="#0077CC"/>
<path d="M36 72.8003L90 41.6001L144 72.8003V135L72 93.6001L90 83.2002L126 104V83.2002L90 62.3999L54 83.2002V104L90 124.8L144 155.8V197.4L90 228.6L36 197.4V135L108 176.6L90 187L54 166.2V187L90 207.8L126 187V166.2L90 145.4L36 114.4V72.8003Z" fill="#0077CC"/>
<path d="M18 83.2002L0 93.6001V218.2L54 249.4L72 239L18 207.8V83.2002Z" fill="#0077CC"/>
<path d="M542.308 104.516C540.359 104.516 538.581 104.186 536.976 103.527C535.399 102.839 534.038 101.85 532.891 100.56C531.773 99.2413 530.899 97.6217 530.268 95.701C529.666 93.7517 529.365 91.5157 529.365 88.993C529.365 86.4703 529.666 84.2487 530.268 82.328C530.899 80.3787 531.773 78.759 532.891 77.469C534.038 76.1503 535.399 75.1613 536.976 74.502C538.581 73.814 540.359 73.47 542.308 73.47C544.257 73.47 546.02 73.814 547.597 74.502C549.202 75.1613 550.564 76.1503 551.682 77.469C552.829 78.759 553.703 80.3787 554.305 82.328C554.936 84.2487 555.251 86.4703 555.251 88.993C555.251 91.5157 554.936 93.7517 554.305 95.701C553.703 97.6217 552.829 99.2413 551.682 100.56C550.564 101.85 549.202 102.839 547.597 103.527C546.02 104.186 544.257 104.516 542.308 104.516ZM542.308 100.173C543.455 100.173 544.501 99.9723 545.447 99.571C546.422 99.1697 547.239 98.5963 547.898 97.851C548.586 97.077 549.116 96.1453 549.489 95.056C549.862 93.9667 550.048 92.734 550.048 91.358V86.628C550.048 85.252 549.862 84.0193 549.489 82.93C549.116 81.8407 548.586 80.9233 547.898 80.178C547.239 79.404 546.422 78.8163 545.447 78.415C544.501 78.0137 543.455 77.813 542.308 77.813C541.133 77.813 540.072 78.0137 539.126 78.415C538.18 78.8163 537.363 79.404 536.675 80.178C536.016 80.9233 535.5 81.8407 535.127 82.93C534.754 84.0193 534.568 85.252 534.568 86.628V91.358C534.568 92.734 534.754 93.9667 535.127 95.056C535.5 96.1453 536.016 97.077 536.675 97.851C537.363 98.5963 538.18 99.1697 539.126 99.571C540.072 99.9723 541.133 100.173 542.308 100.173ZM574.511 100.302H574.339C574.139 100.847 573.866 101.377 573.522 101.893C573.207 102.409 572.791 102.868 572.275 103.269C571.788 103.642 571.186 103.943 570.469 104.172C569.781 104.401 568.979 104.516 568.061 104.516C565.739 104.516 563.933 103.771 562.643 102.28C561.382 100.789 560.751 98.6537 560.751 95.873V81.64H565.438V95.271C565.438 98.7397 566.872 100.474 569.738 100.474C570.34 100.474 570.928 100.402 571.501 100.259C572.075 100.087 572.576 99.8433 573.006 99.528C573.465 99.2127 573.823 98.8113 574.081 98.324C574.368 97.8367 574.511 97.2633 574.511 96.604V81.64H579.198V104H574.511V100.302ZM585.91 104V81.64H590.597V85.94H590.812C591.127 84.7933 591.786 83.79 592.79 82.93C593.793 82.07 595.183 81.64 596.961 81.64H598.208V86.155H596.359C594.495 86.155 593.062 86.456 592.059 87.058C591.084 87.66 590.597 88.5487 590.597 89.724V104H585.91ZM635.839 81.038H635.624L633.259 85.897L626.68 97.894L620.101 85.897L617.736 81.038H617.521V104H612.877V73.986H618.639L626.68 89.251H626.938L634.979 73.986H640.483V104H635.839V81.038ZM649.919 77.641C648.945 77.641 648.228 77.4117 647.769 76.953C647.339 76.4943 647.124 75.9067 647.124 75.19V74.459C647.124 73.7423 647.339 73.1547 647.769 72.696C648.228 72.2373 648.945 72.008 649.919 72.008C650.894 72.008 651.596 72.2373 652.026 72.696C652.456 73.1547 652.671 73.7423 652.671 74.459V75.19C652.671 75.9067 652.456 76.4943 652.026 76.953C651.596 77.4117 650.894 77.641 649.919 77.641ZM647.554 81.64H652.241V104H647.554V81.64ZM666.029 104.516C663.908 104.516 662.13 104.143 660.697 103.398C659.264 102.653 658.017 101.621 656.956 100.302L659.966 97.55C660.797 98.5533 661.715 99.3417 662.718 99.915C663.75 100.46 664.94 100.732 666.287 100.732C667.663 100.732 668.681 100.474 669.34 99.958C670.028 99.4133 670.372 98.668 670.372 97.722C670.372 97.0053 670.128 96.4033 669.641 95.916C669.182 95.4 668.365 95.0703 667.19 94.927L665.126 94.669C662.833 94.3823 661.027 93.723 659.708 92.691C658.418 91.6303 657.773 90.068 657.773 88.004C657.773 86.9147 657.974 85.9543 658.375 85.123C658.776 84.263 659.335 83.5463 660.052 82.973C660.797 82.371 661.672 81.9123 662.675 81.597C663.707 81.2817 664.839 81.124 666.072 81.124C668.079 81.124 669.713 81.4393 670.974 82.07C672.264 82.7007 673.411 83.575 674.414 84.693L671.533 87.445C670.96 86.757 670.2 86.1693 669.254 85.682C668.337 85.166 667.276 84.908 666.072 84.908C664.782 84.908 663.822 85.166 663.191 85.682C662.589 86.198 662.288 86.8717 662.288 87.703C662.288 88.563 662.56 89.208 663.105 89.638C663.65 90.068 664.524 90.3833 665.728 90.584L667.792 90.842C670.257 91.2147 672.049 91.9457 673.167 93.035C674.314 94.0957 674.887 95.529 674.887 97.335C674.887 98.4243 674.672 99.4133 674.242 100.302C673.841 101.162 673.253 101.907 672.479 102.538C671.705 103.169 670.773 103.656 669.684 104C668.595 104.344 667.376 104.516 666.029 104.516ZM687.025 104.516C684.904 104.516 683.127 104.143 681.693 103.398C680.26 102.653 679.013 101.621 677.952 100.302L680.962 97.55C681.794 98.5533 682.711 99.3417 683.714 99.915C684.746 100.46 685.936 100.732 687.283 100.732C688.659 100.732 689.677 100.474 690.336 99.958C691.024 99.4133 691.368 98.668 691.368 97.722C691.368 97.0053 691.125 96.4033 690.637 95.916C690.179 95.4 689.362 95.0703 688.186 94.927L686.122 94.669C683.829 94.3823 682.023 93.723 680.704 92.691C679.414 91.6303 678.769 90.068 678.769 88.004C678.769 86.9147 678.97 85.9543 679.371 85.123C679.773 84.263 680.332 83.5463 681.048 82.973C681.794 82.371 682.668 81.9123 683.671 81.597C684.703 81.2817 685.836 81.124 687.068 81.124C689.075 81.124 690.709 81.4393 691.97 82.07C693.26 82.7007 694.407 83.575 695.41 84.693L692.529 87.445C691.956 86.757 691.196 86.1693 690.25 85.682C689.333 85.166 688.272 84.908 687.068 84.908C685.778 84.908 684.818 85.166 684.187 85.682C683.585 86.198 683.284 86.8717 683.284 87.703C683.284 88.563 683.557 89.208 684.101 89.638C684.646 90.068 685.52 90.3833 686.724 90.584L688.788 90.842C691.254 91.2147 693.045 91.9457 694.163 93.035C695.31 94.0957 695.883 95.529 695.883 97.335C695.883 98.4243 695.668 99.4133 695.238 100.302C694.837 101.162 694.249 101.907 693.475 102.538C692.701 103.169 691.77 103.656 690.68 104C689.591 104.344 688.373 104.516 687.025 104.516ZM703.543 77.641C702.569 77.641 701.852 77.4117 701.393 76.953C700.963 76.4943 700.748 75.9067 700.748 75.19V74.459C700.748 73.7423 700.963 73.1547 701.393 72.696C701.852 72.2373 702.569 72.008 703.543 72.008C704.518 72.008 705.22 72.2373 705.65 72.696C706.08 73.1547 706.295 73.7423 706.295 74.459V75.19C706.295 75.9067 706.08 76.4943 705.65 76.953C705.22 77.4117 704.518 77.641 703.543 77.641ZM701.178 81.64H705.865V104H701.178V81.64ZM721.33 104.516C719.782 104.516 718.363 104.244 717.073 103.699C715.812 103.154 714.737 102.38 713.848 101.377C712.959 100.345 712.271 99.1123 711.784 97.679C711.297 96.217 711.053 94.5973 711.053 92.82C711.053 91.0427 711.297 89.4373 711.784 88.004C712.271 86.542 712.959 85.3093 713.848 84.306C714.737 83.274 715.812 82.4857 717.073 81.941C718.363 81.3963 719.782 81.124 721.33 81.124C722.878 81.124 724.283 81.3963 725.544 81.941C726.834 82.4857 727.923 83.274 728.812 84.306C729.701 85.3093 730.389 86.542 730.876 88.004C731.363 89.4373 731.607 91.0427 731.607 92.82C731.607 94.5973 731.363 96.217 730.876 97.679C730.389 99.1123 729.701 100.345 728.812 101.377C727.923 102.38 726.834 103.154 725.544 103.699C724.283 104.244 722.878 104.516 721.33 104.516ZM721.33 100.646C722.935 100.646 724.225 100.159 725.2 99.184C726.175 98.1807 726.662 96.69 726.662 94.712V90.928C726.662 88.95 726.175 87.4737 725.2 86.499C724.225 85.4957 722.935 84.994 721.33 84.994C719.725 84.994 718.435 85.4957 717.46 86.499C716.485 87.4737 715.998 88.95 715.998 90.928V94.712C715.998 96.69 716.485 98.1807 717.46 99.184C718.435 100.159 719.725 100.646 721.33 100.646ZM736.83 104V81.64H741.517V85.338H741.732C742.219 84.134 742.95 83.1307 743.925 82.328C744.928 81.5253 746.29 81.124 748.01 81.124C750.303 81.124 752.08 81.8837 753.342 83.403C754.632 84.8937 755.277 87.0293 755.277 89.81V104H750.59V90.412C750.59 86.9147 749.185 85.166 746.376 85.166C745.774 85.166 745.172 85.252 744.57 85.424C743.996 85.5673 743.48 85.7967 743.022 86.112C742.563 86.4273 742.19 86.8287 741.904 87.316C741.646 87.8033 741.517 88.3767 741.517 89.036V104H736.83ZM541.835 125.286V151H536.976V125.286H528.032V120.986H550.779V125.286H541.835ZM561.13 151.516C559.582 151.516 558.163 151.244 556.873 150.699C555.612 150.154 554.537 149.38 553.648 148.377C552.759 147.345 552.071 146.112 551.584 144.679C551.097 143.217 550.853 141.597 550.853 139.82C550.853 138.043 551.097 136.437 551.584 135.004C552.071 133.542 552.759 132.309 553.648 131.306C554.537 130.274 555.612 129.486 556.873 128.941C558.163 128.396 559.582 128.124 561.13 128.124C562.678 128.124 564.083 128.396 565.344 128.941C566.634 129.486 567.723 130.274 568.612 131.306C569.501 132.309 570.189 133.542 570.676 135.004C571.163 136.437 571.407 138.043 571.407 139.82C571.407 141.597 571.163 143.217 570.676 144.679C570.189 146.112 569.501 147.345 568.612 148.377C567.723 149.38 566.634 150.154 565.344 150.699C564.083 151.244 562.678 151.516 561.13 151.516ZM561.13 147.646C562.735 147.646 564.025 147.159 565 146.184C565.975 145.181 566.462 143.69 566.462 141.712V137.928C566.462 135.95 565.975 134.474 565 133.499C564.025 132.496 562.735 131.994 561.13 131.994C559.525 131.994 558.235 132.496 557.26 133.499C556.285 134.474 555.798 135.95 555.798 137.928V141.712C555.798 143.69 556.285 145.181 557.26 146.184C558.235 147.159 559.525 147.646 561.13 147.646ZM610.098 128.038H609.883L607.518 132.897L600.939 144.894L594.36 132.897L591.995 128.038H591.78V151H587.136V120.986H592.898L600.939 136.251H601.197L609.238 120.986H614.742V151H610.098V128.038ZM638.196 151C636.963 151 636.017 150.656 635.358 149.968C634.699 149.251 634.297 148.348 634.154 147.259H633.939C633.509 148.664 632.721 149.724 631.574 150.441C630.427 151.158 629.037 151.516 627.403 151.516C625.081 151.516 623.289 150.914 622.028 149.71C620.795 148.506 620.179 146.886 620.179 144.851C620.179 142.615 620.982 140.938 622.587 139.82C624.221 138.702 626.6 138.143 629.725 138.143H633.767V136.251C633.767 134.875 633.394 133.814 632.649 133.069C631.904 132.324 630.743 131.951 629.166 131.951C627.847 131.951 626.772 132.238 625.941 132.811C625.11 133.384 624.407 134.115 623.834 135.004L621.039 132.467C621.784 131.206 622.831 130.174 624.178 129.371C625.525 128.54 627.288 128.124 629.467 128.124C632.362 128.124 634.584 128.798 636.132 130.145C637.68 131.492 638.454 133.427 638.454 135.95V147.173H640.819V151H638.196ZM628.736 147.947C630.198 147.947 631.402 147.632 632.348 147.001C633.294 146.342 633.767 145.467 633.767 144.378V141.153H629.811C626.572 141.153 624.952 142.156 624.952 144.163V144.937C624.952 145.94 625.282 146.7 625.941 147.216C626.629 147.703 627.561 147.947 628.736 147.947ZM645.413 119.18H650.1V138.702H650.315L653.411 134.703L658.786 128.64H664.247L656.421 137.283L665.193 151H659.603L653.196 140.336L650.1 143.69V151H645.413V119.18ZM676.776 151.516C675.171 151.516 673.738 151.244 672.476 150.699C671.215 150.154 670.14 149.38 669.251 148.377C668.363 147.345 667.675 146.112 667.187 144.679C666.729 143.217 666.499 141.597 666.499 139.82C666.499 138.043 666.729 136.437 667.187 135.004C667.675 133.542 668.363 132.309 669.251 131.306C670.14 130.274 671.215 129.486 672.476 128.941C673.738 128.396 675.171 128.124 676.776 128.124C678.41 128.124 679.844 128.411 681.076 128.984C682.338 129.557 683.384 130.36 684.215 131.392C685.047 132.395 685.663 133.571 686.064 134.918C686.494 136.265 686.709 137.713 686.709 139.261V141.024H671.358V141.755C671.358 143.475 671.86 144.894 672.863 146.012C673.895 147.101 675.357 147.646 677.249 147.646C678.625 147.646 679.786 147.345 680.732 146.743C681.678 146.141 682.481 145.324 683.14 144.292L685.892 147.001C685.061 148.377 683.857 149.481 682.28 150.312C680.704 151.115 678.869 151.516 676.776 151.516ZM676.776 131.779C675.974 131.779 675.228 131.922 674.54 132.209C673.881 132.496 673.308 132.897 672.82 133.413C672.362 133.929 672.003 134.545 671.745 135.262C671.487 135.979 671.358 136.767 671.358 137.627V137.928H681.764V137.498C681.764 135.778 681.32 134.402 680.431 133.37C679.543 132.309 678.324 131.779 676.776 131.779ZM537.793 198V186.175L527.473 167.986H533.02L540.33 181.359H540.459L547.726 167.986H553.058L542.652 186.089V198H537.793ZM563.355 198.516C561.807 198.516 560.388 198.244 559.098 197.699C557.837 197.154 556.762 196.38 555.873 195.377C554.985 194.345 554.297 193.112 553.809 191.679C553.322 190.217 553.078 188.597 553.078 186.82C553.078 185.043 553.322 183.437 553.809 182.004C554.297 180.542 554.985 179.309 555.873 178.306C556.762 177.274 557.837 176.486 559.098 175.941C560.388 175.396 561.807 175.124 563.355 175.124C564.903 175.124 566.308 175.396 567.569 175.941C568.859 176.486 569.949 177.274 570.837 178.306C571.726 179.309 572.414 180.542 572.901 182.004C573.389 183.437 573.632 185.043 573.632 186.82C573.632 188.597 573.389 190.217 572.901 191.679C572.414 193.112 571.726 194.345 570.837 195.377C569.949 196.38 568.859 197.154 567.569 197.699C566.308 198.244 564.903 198.516 563.355 198.516ZM563.355 194.646C564.961 194.646 566.251 194.159 567.225 193.184C568.2 192.181 568.687 190.69 568.687 188.712V184.928C568.687 182.95 568.2 181.474 567.225 180.499C566.251 179.496 564.961 178.994 563.355 178.994C561.75 178.994 560.46 179.496 559.485 180.499C558.511 181.474 558.023 182.95 558.023 184.928V188.712C558.023 190.69 558.511 192.181 559.485 193.184C560.46 194.159 561.75 194.646 563.355 194.646ZM592.4 194.302H592.228C592.027 194.847 591.755 195.377 591.411 195.893C591.096 196.409 590.68 196.868 590.164 197.269C589.677 197.642 589.075 197.943 588.358 198.172C587.67 198.401 586.867 198.516 585.95 198.516C583.628 198.516 581.822 197.771 580.532 196.28C579.271 194.789 578.64 192.654 578.64 189.873V175.64H583.327V189.271C583.327 192.74 584.76 194.474 587.627 194.474C588.229 194.474 588.817 194.402 589.39 194.259C589.963 194.087 590.465 193.843 590.895 193.528C591.354 193.213 591.712 192.811 591.97 192.324C592.257 191.837 592.4 191.263 592.4 190.604V175.64H597.087V198H592.4V194.302ZM633.611 193.442H633.439C633.124 194.904 632.264 196.122 630.859 197.097C629.483 198.043 627.649 198.516 625.355 198.516C623.578 198.516 621.93 198.186 620.41 197.527C618.891 196.839 617.572 195.85 616.454 194.56C615.365 193.241 614.505 191.622 613.874 189.701C613.272 187.752 612.971 185.516 612.971 182.993C612.971 180.499 613.287 178.292 613.917 176.371C614.548 174.422 615.437 172.788 616.583 171.469C617.73 170.15 619.106 169.161 620.711 168.502C622.317 167.814 624.108 167.47 626.086 167.47C628.781 167.47 631.06 168.072 632.923 169.276C634.787 170.451 636.234 172.1 637.266 174.221L633.31 176.543C632.737 175.138 631.848 174.006 630.644 173.146C629.44 172.257 627.921 171.813 626.086 171.813C623.707 171.813 621.786 172.573 620.324 174.092C618.891 175.611 618.174 177.761 618.174 180.542V185.444C618.174 188.225 618.891 190.375 620.324 191.894C621.786 193.413 623.707 194.173 626.086 194.173C627.032 194.173 627.935 194.058 628.795 193.829C629.655 193.571 630.401 193.213 631.031 192.754C631.691 192.267 632.207 191.679 632.579 190.991C632.981 190.274 633.181 189.443 633.181 188.497V186.175H626.989V182.004H637.868V198H633.611V193.442ZM644.279 198V175.64H648.966V179.94H649.181C649.496 178.793 650.155 177.79 651.159 176.93C652.162 176.07 653.552 175.64 655.33 175.64H656.577V180.155H654.728C652.864 180.155 651.431 180.456 650.428 181.058C649.453 181.66 648.966 182.549 648.966 183.724V198H644.279ZM669.302 198.516C667.754 198.516 666.335 198.244 665.045 197.699C663.783 197.154 662.708 196.38 661.82 195.377C660.931 194.345 660.243 193.112 659.756 191.679C659.268 190.217 659.025 188.597 659.025 186.82C659.025 185.043 659.268 183.437 659.756 182.004C660.243 180.542 660.931 179.309 661.82 178.306C662.708 177.274 663.783 176.486 665.045 175.941C666.335 175.396 667.754 175.124 669.302 175.124C670.85 175.124 672.254 175.396 673.516 175.941C674.806 176.486 675.895 177.274 676.784 178.306C677.672 179.309 678.36 180.542 678.848 182.004C679.335 183.437 679.579 185.043 679.579 186.82C679.579 188.597 679.335 190.217 678.848 191.679C678.36 193.112 677.672 194.345 676.784 195.377C675.895 196.38 674.806 197.154 673.516 197.699C672.254 198.244 670.85 198.516 669.302 198.516ZM669.302 194.646C670.907 194.646 672.197 194.159 673.172 193.184C674.146 192.181 674.634 190.69 674.634 188.712V184.928C674.634 182.95 674.146 181.474 673.172 180.499C672.197 179.496 670.907 178.994 669.302 178.994C667.696 178.994 666.406 179.496 665.432 180.499C664.457 181.474 663.97 182.95 663.97 184.928V188.712C663.97 190.69 664.457 192.181 665.432 193.184C666.406 194.159 667.696 194.646 669.302 194.646ZM682.271 175.64H686.829L689.108 185.014L691.129 193.485H691.258L693.58 185.014L696.289 175.64H700.503L703.255 185.014L705.62 193.485H705.749L707.727 185.014L710.049 175.64H714.392L708.372 198H703.083L700.159 187.809L698.353 181.531H698.267L696.504 187.809L693.537 198H688.377L682.271 175.64Z" fill="#0F1119"/>
<path d="M243 198V72H261V182H307V198H243Z" fill="#0F1119"/>
<path fill-rule="evenodd" clip-rule="evenodd" d="M322 81V135L331 144H376V182H340V164H322V182V198H385L394 189V135L385 126H340L340 88H376V106H394V88V72H331L322 81Z" fill="#0F1119"/>
<path fill-rule="evenodd" clip-rule="evenodd" d="M412 81V135L421 144H466V182H430V164H412V182V198H475L484 189V135L475 126H430L430 88H466V106H484V88V72H421L412 81Z" fill="#0F1119"/>
</svg>
